M48
;GenerationSoftware,Autodesk,EAGLE,9.6.2*%
;CreationDate,2022-06-15T17:37:26Z*%
FMAT,2
ICI,OFF
METRIC,TZ,000.000
T5C0.300
T4C0.305
T3C0.508
T2C0.650
T1C1.016
%
G90
M71
T1
X36000Y12600
X39494Y126290
X39494Y128830
X74094Y121150
X74094Y123690
X74094Y126230
X74094Y128770
X48294Y90850
X39794Y102850
X39794Y100310
X70994Y77550
X39694Y82350
X50594Y119350
X73294Y105950
X51494Y81850
X42294Y102850
X42294Y100310
X77495Y123750
X77495Y126290
X111802Y54000
X36000Y10060
X36000Y7520
X1400Y15200
X1400Y12660
X1400Y10120
X1400Y7580
X27200Y45500
X35700Y33500
X35700Y36040
X4500Y58800
X35800Y54000
X24900Y17000
X2200Y30400
X24000Y54500
X33200Y33500
X33200Y36040
X77495Y128830
X112095Y121150
X112095Y123690
X112095Y126230
X112095Y128770
X86295Y90850
X77795Y102850
X74001Y12600
X74001Y10060
X74001Y7520
X39401Y15200
X39401Y12660
X39401Y10120
X39401Y7580
X65201Y45500
X73701Y33500
X73701Y36040
X42501Y58800
X73801Y54000
X62901Y17000
X40201Y30400
X62001Y54500
X71201Y33500
X71201Y36040
X77795Y100310
X108995Y77550
X77695Y82350
X88595Y119350
X111295Y105950
X89495Y81850
X80295Y102850
X112002Y12600
X112002Y10060
X112002Y7520
X77402Y15200
X77402Y12660
X77402Y10120
X77402Y7580
X103202Y45500
X111702Y33500
X111702Y36040
X80502Y58800
X80295Y100310
X100902Y17000
X78202Y30400
X100002Y54500
X109202Y33500
X109202Y36040
X1493Y123750
X1493Y126290
X1493Y128830
X36093Y121150
X36093Y123690
X36093Y126230
X36093Y128770
X10293Y90850
X1793Y102850
X1793Y100310
X32993Y77550
X1693Y82350
X12593Y119350
X35293Y105950
X13493Y81850
X4293Y102850
X4293Y100310
X39494Y123750
T2
X33290Y60345
X27510Y60345
X71291Y60345
X65511Y60345
X109292Y60345
X103512Y60345
X4203Y76005
X9983Y76005
X42204Y76005
X47984Y76005
X80205Y76005
X85985Y76005
T3
X17090Y10810
X55091Y10810
X96405Y125540
X93092Y10810
X20403Y125540
X58404Y125540
T4
X747Y46100
X2047Y44000
X74748Y46100
X74748Y41900
X73448Y44000
X38748Y41900
X38748Y46100
X40048Y44000
X112749Y46100
X112749Y41900
X111449Y44000
X76749Y41900
X76749Y46100
X78049Y44000
X76748Y94450
X78048Y92350
X36747Y46100
X112748Y90250
X111448Y92350
X35446Y92350
X36747Y41900
X746Y90250
X746Y94450
X35447Y44000
X38747Y90250
X38747Y94450
X40047Y92350
X74747Y94450
X74747Y90250
X73447Y92350
X2046Y92350
X36746Y94450
X36746Y90250
X747Y41900
X76748Y90250
X112748Y94450
T5
X23400Y43300
X19200Y41200
X21300Y41200
X23400Y41200
X19200Y39200
X21300Y39200
X23400Y39200
X18700Y55200
X15100Y23100
X15100Y17800
X13400Y22700
X10900Y19700
X23000Y19700
X16450Y8000
X11800Y5500
X12300Y10740
X24100Y14400
X23100Y4866
X26600Y4200
X24700Y4400
X20900Y9600
X31900Y60800
X29900Y56010
X29400Y31950
X16600Y31200
X16100Y16900
X8500Y62700
X26100Y40000
X19150Y22000
X7035Y22200
X26100Y38900
X15300Y22000
X3200Y22100
X10950Y6480
X15500Y4100
X11400Y13400
X7700Y13300
X14000Y3600
X7700Y11300
X13500Y3300
X7300Y12200
X8050Y34400
X12400Y29000
X16500Y14700
X15900Y10700
X11200Y14200
X16500Y5400
X13800Y33300
X14500Y33300
X13800Y34100
X14500Y34100
X16800Y58050
X14310Y14800
X14310Y15500
X12810Y15500
X12810Y14800
X19100Y28800
X3225Y25000
X13900Y28200
X27400Y28200
X28300Y18000
X33200Y24300
X8500Y63800
X17865Y24135
X23700Y28800
X21675Y23275
X26100Y42200
X17000Y24600
X14210Y58050
X18850Y52310
X26100Y46600
X7700Y29800
X9400Y34500
X26100Y44400
X8400Y29700
X10000Y34500
X12100Y54500
X26100Y41100
X7450Y34400
X23300Y35900
X26100Y36700
X21944Y28000
X11550Y26400
X26100Y37800
X19100Y25300
X7050Y25400
X6090Y30010
X3600Y37100
X6500Y55600
X26200Y48800
X10600Y34400
X1700Y55600
X6450Y34400
X11760Y29060
X16500Y14100
X8750Y34400
X12371Y29671
X16500Y15500
X16333Y11100
X15700Y55300
X16650Y53350
X10600Y15500
X12500Y62700
X5765Y24135
X15950Y29450
X4495Y25405
X8305Y21805
X9600Y23100
X10700Y32650
X12500Y32350
X10300Y31400
X27900Y11800
X19500Y16700
X18600Y16400
X25000Y3500
X17600Y16310
X24500Y3200
X26635Y12200
X20121Y16621
X27500Y3300
X23600Y8300
X8500Y16744
X16000Y3000
X7400Y16400
X26500Y3300
X22100Y7300
X10000Y16444
X27000Y2900
X23200Y7733
X9200Y16444
X31900Y54800
X13300Y9000
X30400Y62900
X35000Y55600
X13900Y53400
X10300Y53400
X25400Y25700
X4500Y62700
X27200Y18000
X29300Y18000
X71201Y17700
X65201Y64500
X68401Y64500
X71701Y64500
X67901Y58150
X38701Y61700
X38701Y48100
X38701Y52633
X38701Y57167
X38701Y39900
X38701Y35960
X38701Y32020
X38701Y28080
X47101Y17800
X44801Y17800
X42301Y17800
X38701Y24140
X38701Y20200
X39701Y18600
X66601Y49412
X66601Y45825
X66601Y42237
X66601Y38650
X66601Y35062
X66601Y30575
X66601Y27887
X66601Y24300
X64268Y19967
X61601Y17800
X58601Y17800
X55601Y17800
X63601Y61300
X63501Y57600
X64901Y56200
X66401Y54700
X66601Y53000
X66634Y22133
X69201Y60200
X67101Y60300
X69201Y56500
X71001Y55590
X61101Y13000
X66001Y2900
X63801Y2900
X62001Y2900
X60451Y3000
X56801Y2900
X55001Y2900
X50601Y4500
X49001Y2900
X51001Y2900
X47301Y3500
X43901Y13800
X50301Y11740
X52901Y11000
X52501Y13200
X47611Y13920
X41201Y6700
X52301Y7790
X54501Y11900
X55801Y11700
X56001Y13200
X57401Y14100
X58201Y14900
X68601Y13600
X67701Y7500
X71301Y11300
X74001Y17700
X69201Y30800
X75001Y30900
X71301Y44000
X71701Y50400
X74401Y50400
X74301Y60000
X62601Y15000
X51401Y18000
X59301Y5200
X62731Y5700
X50501Y6520
X52701Y4900
X70501Y62900
X66401Y62900
X52101Y9620
X55451Y9150
X66701Y5200
X46811Y13970
X56611Y7010
X56591Y6200
X45201Y32200
X60101Y55200
X56701Y57100
X58101Y57100
X58001Y55200
X58001Y54200
X58001Y53200
X58001Y52200
X60101Y54200
X60101Y53200
X60101Y52200
X61101Y52200
X61101Y51300
X61101Y50300
X61101Y49500
X60201Y49500
X58001Y49500
X59101Y49300
X60101Y56200
X61201Y56200
X61201Y57100
X60301Y58000
X61201Y58000
X61201Y58900
X61201Y59800
X61201Y60700
X61201Y61500
X60301Y62200
X59401Y62200
X58501Y62200
X57601Y62200
X56701Y61500
X56701Y60700
X56701Y59800
X56701Y58900
X56701Y58000
X57601Y58000
X44901Y51200
X44901Y50400
X44901Y49500
X45801Y49500
X46901Y49500
X48101Y49500
X44601Y45400
X44601Y41200
X46701Y47400
X48801Y47400
X46701Y45400
X48801Y45400
X46701Y43400
X48801Y43400
X46701Y41200
X48801Y41200
X46701Y39200
X48801Y39200
X53001Y39200
X53001Y41200
X53001Y43300
X53001Y45400
X53001Y47400
X57201Y47400
X59301Y47400
X61401Y47400
X61401Y45400
X59301Y45400
X57201Y45400
X57201Y43300
X59301Y43300
X61401Y43300
X57201Y41200
X59301Y41200
X61401Y41200
X57201Y39200
X59301Y39200
X61401Y39200
X56701Y55200
X53101Y23100
X53101Y17800
X51401Y22700
X48901Y19700
X61001Y19700
X54451Y8000
X49801Y5500
X50301Y10740
X62101Y14400
X61101Y4866
X64601Y4200
X62701Y4400
X58901Y9600
X69901Y60800
X67901Y56010
X67401Y31950
X54601Y31200
X54101Y16900
X46501Y62700
X64101Y40000
X57151Y22000
X45036Y22200
X64101Y38900
X53301Y22000
X41201Y22100
X48951Y6480
X53501Y4100
X49401Y13400
X45701Y13300
X52001Y3600
X45701Y11300
X51501Y3300
X45301Y12200
X46051Y34400
X50401Y29000
X54501Y14700
X53901Y10700
X49201Y14200
X54501Y5400
X51801Y33300
X52501Y33300
X51801Y34100
X52501Y34100
X54801Y58050
X52311Y14800
X52311Y15500
X50811Y15500
X50811Y14800
X57101Y28800
X41226Y25000
X51901Y28200
X65401Y28200
X66301Y18000
X71201Y24300
X46501Y63800
X55866Y24135
X61701Y28800
X59676Y23275
X64101Y42200
X55001Y24600
X52211Y58050
X56851Y52310
X64101Y46600
X45701Y29800
X47401Y34500
X64101Y44400
X46401Y29700
X48001Y34500
X50101Y54500
X64101Y41100
X45451Y34400
X61301Y35900
X64101Y36700
X59945Y28000
X49551Y26400
X64101Y37800
X57101Y25300
X45051Y25400
X44091Y30010
X41601Y37100
X44501Y55600
X64201Y48800
X48601Y34400
X39701Y55600
X44451Y34400
X49761Y29060
X54501Y14100
X46751Y34400
X50372Y29671
X54501Y15500
X54334Y11100
X53701Y55300
X54651Y53350
X48601Y15500
X50501Y62700
X43766Y24135
X53951Y29450
X42496Y25405
X46306Y21805
X47601Y23100
X48701Y32650
X50501Y32350
X48301Y31400
X65901Y11800
X57501Y16700
X56601Y16400
X63001Y3500
X55601Y16310
X62501Y3200
X64636Y12200
X58122Y16621
X65501Y3300
X61601Y8300
X46501Y16744
X54001Y3000
X45401Y16400
X64501Y3300
X60101Y7300
X48001Y16444
X65001Y2900
X61201Y7733
X47201Y16444
X69901Y54800
X51301Y9000
X68401Y62900
X73001Y55600
X51901Y53400
X48301Y53400
X63401Y25700
X42501Y62700
X65201Y18000
X67301Y18000
X109202Y17700
X103202Y64500
X106402Y64500
X109702Y64500
X105902Y58150
X76702Y61700
X76702Y48100
X76702Y52633
X76702Y57167
X76702Y39900
X76702Y35960
X76702Y32020
X76702Y28080
X85102Y17800
X82802Y17800
X80302Y17800
X76702Y24140
X76702Y20200
X77702Y18600
X104602Y49412
X104602Y45825
X104602Y42237
X104602Y38650
X104602Y35062
X104602Y30575
X104602Y27887
X104602Y24300
X102269Y19967
X99602Y17800
X96602Y17800
X93602Y17800
X101602Y61300
X101502Y57600
X102902Y56200
X104402Y54700
X104602Y53000
X104635Y22133
X107202Y60200
X105102Y60300
X107202Y56500
X109002Y55590
X99102Y13000
X104002Y2900
X101802Y2900
X100002Y2900
X98452Y3000
X94802Y2900
X93002Y2900
X88602Y4500
X87002Y2900
X89002Y2900
X85302Y3500
X81902Y13800
X88302Y11740
X90902Y11000
X90502Y13200
X85612Y13920
X79202Y6700
X90302Y7790
X92502Y11900
X93802Y11700
X94002Y13200
X95402Y14100
X96202Y14900
X106602Y13600
X105702Y7500
X109302Y11300
X112002Y17700
X107202Y30800
X113002Y30900
X109302Y44000
X109702Y50400
X112402Y50400
X112302Y60000
X100602Y15000
X89402Y18000
X97302Y5200
X100732Y5700
X88502Y6520
X90702Y4900
X108502Y62900
X104402Y62900
X90102Y9620
X93452Y9150
X104702Y5200
X84812Y13970
X94612Y7010
X94592Y6200
X83202Y32200
X98102Y55200
X94702Y57100
X96102Y57100
X96002Y55200
X96002Y54200
X96002Y53200
X96002Y52200
X98102Y54200
X98102Y53200
X98102Y52200
X99102Y52200
X99102Y51300
X99102Y50300
X99102Y49500
X98202Y49500
X96002Y49500
X97102Y49300
X98102Y56200
X99202Y56200
X99202Y57100
X98302Y58000
X99202Y58000
X99202Y58900
X99202Y59800
X99202Y60700
X99202Y61500
X98302Y62200
X97402Y62200
X96502Y62200
X95602Y62200
X94702Y61500
X94702Y60700
X94702Y59800
X94702Y58900
X94702Y58000
X95602Y58000
X82902Y51200
X82902Y50400
X82902Y49500
X83802Y49500
X84902Y49500
X86102Y49500
X82602Y45400
X82602Y41200
X84702Y47400
X86802Y47400
X84702Y45400
X86802Y45400
X84702Y43400
X86802Y43400
X84702Y41200
X86802Y41200
X84702Y39200
X86802Y39200
X91002Y39200
X91002Y41200
X91002Y43300
X91002Y45400
X91002Y47400
X95202Y47400
X97302Y47400
X99402Y47400
X99402Y45400
X97302Y45400
X95202Y45400
X95202Y43300
X97302Y43300
X99402Y43300
X95202Y41200
X97302Y41200
X99402Y41200
X95202Y39200
X97302Y39200
X99402Y39200
X94702Y55200
X91102Y23100
X91102Y17800
X89402Y22700
X86902Y19700
X99002Y19700
X92452Y8000
X87802Y5500
X88302Y10740
X100102Y14400
X99102Y4866
X102602Y4200
X100702Y4400
X96902Y9600
X107902Y60800
X105902Y56010
X105402Y31950
X92602Y31200
X92102Y16900
X84502Y62700
X102102Y40000
X95152Y22000
X83037Y22200
X102102Y38900
X91302Y22000
X79202Y22100
X86952Y6480
X91502Y4100
X87402Y13400
X83702Y13300
X90002Y3600
X83702Y11300
X89502Y3300
X83302Y12200
X84052Y34400
X88402Y29000
X92502Y14700
X91902Y10700
X87202Y14200
X92502Y5400
X89802Y33300
X90502Y33300
X89802Y34100
X90502Y34100
X92802Y58050
X90312Y14800
X90312Y15500
X88812Y15500
X88812Y14800
X95102Y28800
X79227Y25000
X89902Y28200
X103402Y28200
X104302Y18000
X109202Y24300
X84502Y63800
X93867Y24135
X99702Y28800
X97677Y23275
X102102Y42200
X93002Y24600
X90212Y58050
X94852Y52310
X102102Y46600
X83702Y29800
X85402Y34500
X102102Y44400
X84402Y29700
X86002Y34500
X88102Y54500
X102102Y41100
X83452Y34400
X99302Y35900
X102102Y36700
X97946Y28000
X87552Y26400
X102102Y37800
X95102Y25300
X83052Y25400
X82092Y30010
X79602Y37100
X82502Y55600
X102202Y48800
X86602Y34400
X77702Y55600
X82452Y34400
X87762Y29060
X92502Y14100
X84752Y34400
X88373Y29671
X92502Y15500
X92335Y11100
X91702Y55300
X92652Y53350
X86602Y15500
X88502Y62700
X81767Y24135
X91952Y29450
X80497Y25405
X84307Y21805
X85602Y23100
X86702Y32650
X88502Y32350
X86302Y31400
X103902Y11800
X95502Y16700
X94602Y16400
X101002Y3500
X93602Y16310
X100502Y3200
X102637Y12200
X96123Y16621
X103502Y3300
X99602Y8300
X84502Y16744
X92002Y3000
X83402Y16400
X102502Y3300
X98102Y7300
X86002Y16444
X103002Y2900
X99202Y7733
X85202Y16444
X107902Y54800
X89302Y9000
X106402Y62900
X111002Y55600
X89902Y53400
X86302Y53400
X101402Y25700
X80502Y62700
X103202Y18000
X105302Y18000
X4293Y118650
X10293Y71850
X7093Y71850
X3793Y71850
X7593Y78200
X36793Y74650
X36793Y88250
X36793Y83716
X36793Y79183
X36793Y96450
X36793Y100390
X36793Y104330
X36793Y108270
X28393Y118550
X30693Y118550
X33193Y118550
X36793Y112210
X36793Y116150
X35793Y117750
X8893Y86937
X8893Y90525
X8893Y94112
X8893Y97700
X8893Y101287
X8893Y105775
X8893Y108462
X8893Y112050
X11226Y116383
X13893Y118550
X16893Y118550
X19893Y118550
X11893Y75050
X11993Y78750
X10593Y80150
X9093Y81650
X8893Y83350
X8860Y114216
X6293Y76150
X8393Y76050
X6293Y79850
X4493Y80760
X14393Y123350
X9493Y133450
X11693Y133450
X13493Y133450
X15043Y133350
X18693Y133450
X20493Y133450
X24893Y131850
X26493Y133450
X24493Y133450
X28193Y132850
X31593Y122550
X25193Y124610
X22593Y125350
X22993Y123150
X27883Y122430
X34293Y129650
X23193Y128560
X20993Y124450
X19693Y124650
X19493Y123150
X18093Y122250
X17293Y121450
X6893Y122750
X7793Y128850
X4193Y125050
X1493Y118650
X6293Y105550
X493Y105450
X4193Y92350
X3793Y85950
X1093Y85950
X1193Y76350
X12893Y121350
X24093Y118350
X16193Y131150
X12763Y130650
X24993Y129830
X22793Y131450
X4993Y73450
X9093Y73450
X23393Y126730
X20043Y127200
X8793Y131150
X28683Y122380
X18883Y129340
X18903Y130150
X30293Y104150
X15393Y81150
X18793Y79250
X17393Y79250
X17493Y81150
X17493Y82150
X17493Y83150
X17493Y84150
X15393Y82150
X15393Y83150
X15393Y84150
X14393Y84150
X14393Y85050
X14393Y86050
X14393Y86850
X15293Y86850
X17493Y86850
X16393Y87050
X15393Y80150
X14293Y80150
X14293Y79250
X15193Y78350
X14293Y78350
X14293Y77450
X14293Y76550
X14293Y75650
X14293Y74850
X15193Y74150
X16093Y74150
X16993Y74150
X17893Y74150
X18793Y74850
X18793Y75650
X18793Y76550
X18793Y77450
X18793Y78350
X17893Y78350
X30593Y85150
X30593Y85950
X30593Y86850
X29693Y86850
X28593Y86850
X27393Y86850
X30893Y90950
X30893Y95150
X28793Y88950
X26693Y88950
X28793Y90950
X26693Y90950
X28793Y92950
X26693Y92950
X28793Y95150
X26693Y95150
X28793Y97150
X26693Y97150
X22493Y97150
X22493Y95150
X22493Y93050
X22493Y90950
X22493Y88950
X18293Y88950
X16193Y88950
X14093Y88950
X14093Y90950
X16193Y90950
X18293Y90950
X18293Y93050
X16193Y93050
X14093Y93050
X18293Y95150
X16193Y95150
X14093Y95150
X18293Y97150
X16193Y97150
X14093Y97150
X18793Y81150
X22393Y113250
X22393Y118550
X24093Y113650
X26593Y116650
X14493Y116650
X21043Y128350
X25693Y130850
X25193Y125610
X13393Y121950
X14393Y131484
X10893Y132150
X12793Y131950
X16593Y126750
X5593Y75550
X7593Y80340
X8093Y104400
X20893Y105150
X21393Y119450
X28993Y73650
X11393Y96350
X18343Y114350
X30458Y114150
X11393Y97450
X22193Y114350
X34293Y114250
X26543Y129870
X21993Y132250
X26093Y122950
X29793Y123050
X23493Y132750
X29793Y125050
X23993Y133050
X30193Y124150
X29443Y101950
X25093Y107350
X20993Y121650
X21593Y125650
X26293Y122150
X20993Y130950
X23693Y103050
X22993Y103050
X23693Y102250
X22993Y102250
X20693Y78300
X23183Y121550
X23183Y120850
X24683Y120850
X24683Y121550
X18393Y107550
X34268Y111350
X23593Y108150
X10093Y108150
X9193Y118350
X4293Y112050
X28993Y72550
X19628Y112215
X13793Y107550
X15818Y113075
X11393Y94150
X20493Y111750
X23283Y78300
X18643Y84040
X11393Y89750
X29793Y106550
X28093Y101850
X11393Y91950
X29093Y106650
X27493Y101850
X25393Y81850
X11393Y95250
X30043Y101950
X14193Y100450
X11393Y99650
X15549Y108350
X25943Y109950
X11393Y98550
X18393Y111050
X30443Y110950
X31403Y106340
X33893Y99250
X30993Y80750
X11293Y87550
X26893Y101950
X35793Y80750
X31043Y101950
X25733Y107289
X20993Y122250
X28743Y101950
X25122Y106679
X20993Y120850
X21160Y125250
X21793Y81050
X20843Y83000
X26893Y120850
X24993Y73650
X31728Y112215
X21543Y106900
X32998Y110945
X29188Y114545
X27893Y113250
X26793Y103700
X24993Y104000
X27193Y104950
X9593Y124550
X17993Y119650
X18893Y119950
X12493Y132850
X19893Y120040
X12993Y133150
X10858Y124150
X17372Y119729
X9993Y133050
X13893Y128050
X28993Y119605
X21493Y133350
X30093Y119950
X10993Y133050
X15393Y129050
X27493Y119905
X10493Y133450
X14293Y128617
X28293Y119905
X5593Y81550
X24193Y127350
X7093Y73450
X2493Y80750
X23593Y82950
X27193Y82950
X12093Y110650
X32993Y73650
X10293Y118350
X8193Y118350
X42294Y118650
X48294Y71850
X45094Y71850
X41794Y71850
X45594Y78200
X74794Y74650
X74794Y88250
X74794Y83716
X74794Y79183
X74794Y96450
X74794Y100390
X74794Y104330
X74794Y108270
X66394Y118550
X68694Y118550
X71194Y118550
X74794Y112210
X74794Y116150
X73794Y117750
X46894Y86937
X46894Y90525
X46894Y94112
X46894Y97700
X46894Y101287
X46894Y105775
X46894Y108462
X46894Y112050
X49227Y116383
X51894Y118550
X54894Y118550
X57894Y118550
X49894Y75050
X49994Y78750
X48594Y80150
X47094Y81650
X46894Y83350
X46861Y114216
X44294Y76150
X46394Y76050
X44294Y79850
X42494Y80760
X52394Y123350
X47494Y133450
X49694Y133450
X51494Y133450
X53044Y133350
X56694Y133450
X58494Y133450
X62894Y131850
X64494Y133450
X62494Y133450
X66194Y132850
X69594Y122550
X63194Y124610
X60594Y125350
X60994Y123150
X65884Y122430
X72294Y129650
X61194Y128560
X58994Y124450
X57694Y124650
X57494Y123150
X56094Y122250
X55294Y121450
X44894Y122750
X45794Y128850
X42194Y125050
X39494Y118650
X44294Y105550
X38494Y105450
X42194Y92350
X41794Y85950
X39094Y85950
X39194Y76350
X50894Y121350
X62094Y118350
X54194Y131150
X50764Y130650
X62994Y129830
X60794Y131450
X42994Y73450
X47094Y73450
X61394Y126730
X58044Y127200
X46794Y131150
X66684Y122380
X56884Y129340
X56904Y130150
X68294Y104150
X53394Y81150
X56794Y79250
X55394Y79250
X55494Y81150
X55494Y82150
X55494Y83150
X55494Y84150
X53394Y82150
X53394Y83150
X53394Y84150
X52394Y84150
X52394Y85050
X52394Y86050
X52394Y86850
X53294Y86850
X55494Y86850
X54394Y87050
X53394Y80150
X52294Y80150
X52294Y79250
X53194Y78350
X52294Y78350
X52294Y77450
X52294Y76550
X52294Y75650
X52294Y74850
X53194Y74150
X54094Y74150
X54994Y74150
X55894Y74150
X56794Y74850
X56794Y75650
X56794Y76550
X56794Y77450
X56794Y78350
X55894Y78350
X68594Y85150
X68594Y85950
X68594Y86850
X67694Y86850
X66594Y86850
X65394Y86850
X68894Y90950
X68894Y95150
X66794Y88950
X64694Y88950
X66794Y90950
X64694Y90950
X66794Y92950
X64694Y92950
X66794Y95150
X64694Y95150
X66794Y97150
X64694Y97150
X60494Y97150
X60494Y95150
X60494Y93050
X60494Y90950
X60494Y88950
X56294Y88950
X54194Y88950
X52094Y88950
X52094Y90950
X54194Y90950
X56294Y90950
X56294Y93050
X54194Y93050
X52094Y93050
X56294Y95150
X54194Y95150
X52094Y95150
X56294Y97150
X54194Y97150
X52094Y97150
X56794Y81150
X60394Y113250
X60394Y118550
X62094Y113650
X64594Y116650
X52494Y116650
X59044Y128350
X63694Y130850
X63194Y125610
X51394Y121950
X52394Y131484
X48894Y132150
X50794Y131950
X54594Y126750
X43594Y75550
X45594Y80340
X46094Y104400
X58894Y105150
X59394Y119450
X66994Y73650
X49394Y96350
X56344Y114350
X68459Y114150
X49394Y97450
X60194Y114350
X72294Y114250
X64544Y129870
X59994Y132250
X64094Y122950
X67794Y123050
X61494Y132750
X67794Y125050
X61994Y133050
X68194Y124150
X67444Y101950
X63094Y107350
X58994Y121650
X59594Y125650
X64294Y122150
X58994Y130950
X61694Y103050
X60994Y103050
X61694Y102250
X60994Y102250
X58694Y78300
X61184Y121550
X61184Y120850
X62684Y120850
X62684Y121550
X56394Y107550
X72269Y111350
X61594Y108150
X48094Y108150
X47194Y118350
X42294Y112050
X66994Y72550
X57629Y112215
X51794Y107550
X53819Y113075
X49394Y94150
X58494Y111750
X61284Y78300
X56644Y84040
X49394Y89750
X67794Y106550
X66094Y101850
X49394Y91950
X67094Y106650
X65494Y101850
X63394Y81850
X49394Y95250
X68044Y101950
X52194Y100450
X49394Y99650
X53550Y108350
X63944Y109950
X49394Y98550
X56394Y111050
X68444Y110950
X69404Y106340
X71894Y99250
X68994Y80750
X49294Y87550
X64894Y101950
X73794Y80750
X69044Y101950
X63734Y107289
X58994Y122250
X66744Y101950
X63123Y106679
X58994Y120850
X59161Y125250
X59794Y81050
X58844Y83000
X64894Y120850
X62994Y73650
X69729Y112215
X59544Y106900
X70999Y110945
X67189Y114545
X65894Y113250
X64794Y103700
X33200Y17700
X65194Y104950
X47594Y124550
X55994Y119650
X56894Y119950
X50494Y132850
X57894Y120040
X50994Y133150
X48859Y124150
X55373Y119729
X47994Y133050
X51894Y128050
X66994Y119605
X59494Y133350
X68094Y119950
X48994Y133050
X53394Y129050
X65494Y119905
X48494Y133450
X52294Y128617
X66294Y119905
X43594Y81550
X62194Y127350
X45094Y73450
X40494Y80750
X61594Y82950
X65194Y82950
X50094Y110650
X70994Y73650
X48294Y118350
X46194Y118350
X80295Y118650
X86295Y71850
X83095Y71850
X79795Y71850
X83595Y78200
X112795Y74650
X112795Y88250
X112795Y83716
X112795Y79183
X112795Y96450
X112795Y100390
X112795Y104330
X112795Y108270
X104395Y118550
X106695Y118550
X109195Y118550
X112795Y112210
X112795Y116150
X111795Y117750
X84895Y86937
X84895Y90525
X84895Y94112
X84895Y97700
X84895Y101287
X84895Y105775
X84895Y108462
X84895Y112050
X87228Y116383
X89895Y118550
X92895Y118550
X95895Y118550
X87895Y75050
X87995Y78750
X86595Y80150
X85095Y81650
X84895Y83350
X84861Y114216
X82295Y76150
X84395Y76050
X82295Y79850
X80495Y80760
X90395Y123350
X85495Y133450
X87695Y133450
X89495Y133450
X91045Y133350
X94695Y133450
X96495Y133450
X100895Y131850
X102495Y133450
X100495Y133450
X104195Y132850
X107595Y122550
X101195Y124610
X98595Y125350
X98995Y123150
X103885Y122430
X110295Y129650
X99195Y128560
X96995Y124450
X95695Y124650
X95495Y123150
X94095Y122250
X93295Y121450
X82895Y122750
X83795Y128850
X80195Y125050
X77495Y118650
X82295Y105550
X76495Y105450
X80195Y92350
X79795Y85950
X77095Y85950
X77195Y76350
X88895Y121350
X100095Y118350
X92195Y131150
X88765Y130650
X100995Y129830
X98795Y131450
X80995Y73450
X85095Y73450
X99395Y126730
X96045Y127200
X84795Y131150
X104685Y122380
X94885Y129340
X94905Y130150
X106295Y104150
X91395Y81150
X94795Y79250
X93395Y79250
X93495Y81150
X93495Y82150
X93495Y83150
X93495Y84150
X91395Y82150
X91395Y83150
X91395Y84150
X90395Y84150
X90395Y85050
X90395Y86050
X90395Y86850
X91295Y86850
X93495Y86850
X92395Y87050
X91395Y80150
X90295Y80150
X90295Y79250
X91195Y78350
X90295Y78350
X90295Y77450
X90295Y76550
X90295Y75650
X90295Y74850
X91195Y74150
X92095Y74150
X92995Y74150
X93895Y74150
X94795Y74850
X94795Y75650
X94795Y76550
X94795Y77450
X94795Y78350
X93895Y78350
X106595Y85150
X106595Y85950
X106595Y86850
X105695Y86850
X104595Y86850
X103395Y86850
X106895Y90950
X106895Y95150
X104795Y88950
X102695Y88950
X104795Y90950
X102695Y90950
X104795Y92950
X102695Y92950
X104795Y95150
X102695Y95150
X104795Y97150
X102695Y97150
X98495Y97150
X98495Y95150
X98495Y93050
X98495Y90950
X98495Y88950
X94295Y88950
X92195Y88950
X90095Y88950
X90095Y90950
X92195Y90950
X94295Y90950
X94295Y93050
X92195Y93050
X90095Y93050
X94295Y95150
X92195Y95150
X90095Y95150
X94295Y97150
X92195Y97150
X90095Y97150
X94795Y81150
X98395Y113250
X98395Y118550
X100095Y113650
X102595Y116650
X90495Y116650
X97045Y128350
X101695Y130850
X101195Y125610
X89395Y121950
X90395Y131484
X86895Y132150
X88795Y131950
X92595Y126750
X81595Y75550
X83595Y80340
X84095Y104400
X96895Y105150
X97395Y119450
X104995Y73650
X87395Y96350
X94345Y114350
X106460Y114150
X87395Y97450
X98195Y114350
X110295Y114250
X102545Y129870
X97995Y132250
X102095Y122950
X105795Y123050
X99495Y132750
X105795Y125050
X99995Y133050
X106195Y124150
X105445Y101950
X101095Y107350
X96995Y121650
X97595Y125650
X102295Y122150
X96995Y130950
X99695Y103050
X98995Y103050
X99695Y102250
X98995Y102250
X96695Y78300
X99185Y121550
X99185Y120850
X62994Y104000
X100685Y121550
X94395Y107550
X110270Y111350
X99595Y108150
X86095Y108150
X85195Y118350
X80295Y112050
X104995Y72550
X95630Y112215
X89795Y107550
X91820Y113075
X87395Y94150
X96495Y111750
X99285Y78300
X94645Y84040
X87395Y89750
X105795Y106550
X104095Y101850
X87395Y91950
X105095Y106650
X103495Y101850
X101395Y81850
X87395Y95250
X106045Y101950
X90195Y100450
X87395Y99650
X91551Y108350
X101945Y109950
X87395Y98550
X94395Y111050
X106445Y110950
X107405Y106340
X109895Y99250
X106995Y80750
X87295Y87550
X102895Y101950
X111795Y80750
X107045Y101950
X101734Y107289
X96995Y122250
X104745Y101950
X101124Y106679
X96995Y120850
X97162Y125250
X97795Y81050
X96845Y83000
X102895Y120850
X100995Y73650
X107730Y112215
X97545Y106900
X109000Y110945
X105190Y114545
X103895Y113250
X102795Y103700
X100995Y104000
X103195Y104950
X85595Y124550
X93995Y119650
X94895Y119950
X88495Y132850
X95895Y120040
X88995Y133150
X86860Y124150
X93374Y119729
X85995Y133050
X89895Y128050
X104995Y119605
X97495Y133350
X106095Y119950
X86995Y133050
X91395Y129050
X103495Y119905
X86495Y133450
X90295Y128617
X104295Y119905
X81595Y81550
X100195Y127350
X83095Y73450
X78495Y80750
X99595Y82950
X103195Y82950
X88095Y110650
X108995Y73650
X86295Y118350
X84195Y118350
X27200Y64500
X30400Y64500
X33700Y64500
X29900Y58150
X700Y61700
X700Y48100
X700Y52633
X700Y57167
X700Y39900
X700Y35960
X700Y32020
X700Y28080
X9100Y17800
X6800Y17800
X4300Y17800
X700Y24140
X700Y20200
X1700Y18600
X28600Y49412
X28600Y45825
X28600Y42237
X28600Y38650
X28600Y35062
X28600Y30575
X28600Y27887
X28600Y24300
X26267Y19967
X23600Y17800
X20600Y17800
X17600Y17800
X25600Y61300
X25500Y57600
X26900Y56200
X28400Y54700
X28600Y53000
X28633Y22133
X31200Y60200
X29100Y60300
X31200Y56500
X33000Y55590
X23100Y13000
X28000Y2900
X25800Y2900
X24000Y2900
X22450Y3000
X18800Y2900
X17000Y2900
X12600Y4500
X11000Y2900
X13000Y2900
X9300Y3500
X5900Y13800
X12300Y11740
X14900Y11000
X14500Y13200
X9610Y13920
X3200Y6700
X14300Y7790
X16500Y11900
X17800Y11700
X18000Y13200
X19400Y14100
X20200Y14900
X30600Y13600
X29700Y7500
X33300Y11300
X36000Y17700
X31200Y30800
X37000Y30900
X33300Y44000
X33700Y50400
X36400Y50400
X36300Y60000
X24600Y15000
X13400Y18000
X21300Y5200
X24730Y5700
X12500Y6520
X14700Y4900
X32500Y62900
X28400Y62900
X14100Y9620
X17450Y9150
X28700Y5200
X8810Y13970
X18610Y7010
X18590Y6200
X7200Y32200
X22100Y55200
X18700Y57100
X20100Y57100
X20000Y55200
X20000Y54200
X20000Y53200
X20000Y52200
X22100Y54200
X22100Y53200
X22100Y52200
X23100Y52200
X23100Y51300
X23100Y50300
X23100Y49500
X22200Y49500
X20000Y49500
X21100Y49300
X22100Y56200
X23200Y56200
X23200Y57100
X22300Y58000
X23200Y58000
X23200Y58900
X23200Y59800
X23200Y60700
X23200Y61500
X22300Y62200
X21400Y62200
X20500Y62200
X19600Y62200
X18700Y61500
X18700Y60700
X18700Y59800
X18700Y58900
X18700Y58000
X19600Y58000
X6900Y51200
X6900Y50400
X6900Y49500
X7800Y49500
X8900Y49500
X10100Y49500
X6600Y45400
X6600Y41200
X8700Y47400
X10800Y47400
X8700Y45400
X10800Y45400
X8700Y43400
X10800Y43400
X8700Y41200
X10800Y41200
X8700Y39200
X10800Y39200
X15000Y39200
X15000Y41200
X15000Y43300
X15000Y45400
X15000Y47400
X19200Y47400
X21300Y47400
X23400Y47400
X23400Y45400
X21300Y45400
X19200Y45400
X19200Y43300
X21300Y43300
X100685Y120850
M30